<?xml version="1.0" encoding="utf-8"?>
<!-- Generator: Adobe Illustrator 19.1.0, SVG Export Plug-In . SVG Version: 6.00 Build 0)  -->
<svg version="1.1" id="Layer_1" xmlns="http://www.w3.org/2000/svg" xmlns:xlink="http://www.w3.org/1999/xlink" x="0px" y="0px"
	 viewBox="0 0 192 192" style="enable-background:new 0 0 192 192;" xml:space="preserve">
<style type="text/css">
	.st0{fill:#FFFFFF;}
	.st1{fill:#3E2723;}
	.st2{display:none;fill:#FFFFFF;}
</style>
<g>
	<path class="st0" d="M173.4,63.3c-4.2-10-10.3-19-18-26.7c-7.7-7.7-16.7-13.8-26.7-18C118.3,14.2,107.3,12,96,12
		s-22.3,2.2-32.7,6.6c-10,4.2-19,10.3-26.7,18c-7.7,7.7-13.8,16.7-18,26.7C14.2,73.7,12,84.7,12,96s2.2,22.3,6.6,32.7
		c4.2,10,10.3,19,18,26.7s16.7,13.8,26.7,18c10.3,4.4,21.3,6.6,32.7,6.6s22.3-2.2,32.7-6.6c10-4.2,19-10.3,26.7-18
		c7.7-7.7,13.8-16.7,18-26.7c4.4-10.3,6.6-21.3,6.6-32.7S177.8,73.7,173.4,63.3z M137.6,142c-7.5,7.5-23.8,17.1-40.2,18
		c-15.4,0.8-30.8-6.6-38.5-11.4c-12.6-7.8-17.6-23.9-17.6-24.9l40.5-28.3c0,0-2.4,20.7,11.6,20.7c14,0,12.9-13.4,12.9-13.4l0.1-40.6
		L150.3,32l0.1,69.9C150.4,101.8,152,127.5,137.6,142z"/>
	<path class="st1" d="M96,0C43,0,0,43,0,96s43,96,96,96s96-43,96-96S149,0,96,0z M128.7,173.4c-10.3,4.4-21.3,6.6-32.7,6.6
		s-22.3-2.2-32.7-6.6c-10-4.2-19-10.3-26.7-18s-13.8-16.7-18-26.7C14.2,118.3,12,107.3,12,96s2.2-22.3,6.6-32.7
		c4.2-10,10.3-19,18-26.7c7.7-7.7,16.7-13.8,26.7-18C73.7,14.2,84.7,12,96,12s22.3,2.2,32.7,6.6c10,4.2,19,10.3,26.7,18
		c7.7,7.7,13.8,16.7,18,26.7c4.4,10.3,6.6,21.3,6.6,32.7s-2.2,22.3-6.6,32.7c-4.2,10-10.3,19-18,26.7
		C147.7,163.1,138.7,169.2,128.7,173.4z"/>
	<path class="st2" d="M150.3,32l-43.7,30.2l-0.1,40.6c0,0,1.1,13.4-12.9,13.4c-14,0-11.6-20.7-11.6-20.7l-40.5,28.3
		c0,1,4.9,17.1,17.6,24.9c7.7,4.8,23.1,12.3,38.5,11.4c16.4-0.9,32.8-10.6,40.2-18c14.4-14.4,12.8-40.1,12.8-40.1L150.3,32z"/>
</g>
</svg>
